<?xml version="1.0" encoding="UTF-8" standalone="no"?><!DOCTYPE svg PUBLIC "-//W3C//DTD SVG 1.1//EN" "http://www.w3.org/Graphics/SVG/1.1/DTD/svg11.dtd"><svg width="100%" height="100%" viewBox="0 0 40 6" version="1.1" xmlns="http://www.w3.org/2000/svg" xmlns:xlink="http://www.w3.org/1999/xlink" xml:space="preserve" xmlns:serif="http://www.serif.com/" style="fill-rule:evenodd;clip-rule:evenodd;stroke-linejoin:round;stroke-miterlimit:2;"><rect id="Artboard1" x="0" y="0" width="39.677" height="5.617" style="fill:none;"/><g><path d="M0.788,5.436l-0.583,0l2.259,-5.259l0.516,0l2.244,5.259l-0.591,0l-0.575,-1.382l-2.702,0l-0.568,1.382Zm0.768,-1.872l2.302,0l-1.151,-2.793l-1.151,2.793Z" style="fill:#707070;fill-rule:nonzero;"/><path d="M7.334,5.436l-0.553,0l-1.41,-3.477l0.561,0l1.122,2.942l0.015,0l1.129,-2.942l0.538,0l-1.402,3.477Z" style="fill:#707070;fill-rule:nonzero;"/><path d="M12.153,3.43c-0.014,-0.327 -0.119,-0.598 -0.313,-0.813c-0.195,-0.216 -0.471,-0.323 -0.83,-0.323c-0.168,0 -0.323,0.031 -0.465,0.093c-0.143,0.062 -0.269,0.146 -0.377,0.252c-0.108,0.107 -0.194,0.228 -0.258,0.364c-0.064,0.136 -0.101,0.279 -0.111,0.427l2.354,0Zm0.51,0.164l0,0.111c0,0.04 -0.003,0.082 -0.008,0.126l-2.863,0c0.005,0.174 0.039,0.337 0.103,0.491c0.064,0.153 0.153,0.287 0.266,0.401c0.113,0.114 0.246,0.204 0.398,0.271c0.153,0.067 0.318,0.1 0.495,0.1c0.261,0 0.486,-0.06 0.675,-0.182c0.19,-0.121 0.333,-0.261 0.432,-0.419l0.376,0.297c-0.206,0.262 -0.434,0.45 -0.682,0.564c-0.249,0.114 -0.516,0.171 -0.801,0.171c-0.256,0 -0.493,-0.046 -0.712,-0.137c-0.219,-0.092 -0.407,-0.219 -0.565,-0.383c-0.157,-0.163 -0.282,-0.356 -0.373,-0.579c-0.091,-0.223 -0.136,-0.466 -0.136,-0.728c0,-0.263 0.044,-0.505 0.133,-0.728c0.088,-0.223 0.211,-0.416 0.369,-0.58c0.157,-0.163 0.342,-0.291 0.553,-0.382c0.212,-0.092 0.441,-0.138 0.687,-0.138c0.27,0 0.509,0.046 0.715,0.138c0.207,0.091 0.379,0.215 0.517,0.371c0.138,0.156 0.242,0.338 0.314,0.546c0.071,0.208 0.107,0.431 0.107,0.669Z" style="fill:#707070;fill-rule:nonzero;"/><path d="M14.19,1.959c0.01,0.095 0.018,0.199 0.023,0.312c0.005,0.114 0.007,0.208 0.007,0.283l0.015,0c0.098,-0.203 0.258,-0.368 0.479,-0.494c0.222,-0.127 0.456,-0.19 0.702,-0.19c0.437,0 0.766,0.132 0.985,0.394c0.219,0.263 0.328,0.609 0.328,1.04l0,2.132l-0.502,0l0,-1.924c0,-0.183 -0.014,-0.349 -0.044,-0.498c-0.029,-0.148 -0.08,-0.276 -0.151,-0.382c-0.072,-0.107 -0.167,-0.19 -0.288,-0.249c-0.121,-0.06 -0.272,-0.089 -0.454,-0.089c-0.133,0 -0.262,0.027 -0.387,0.081c-0.126,0.055 -0.238,0.138 -0.336,0.249c-0.099,0.112 -0.177,0.253 -0.236,0.424c-0.059,0.171 -0.089,0.372 -0.089,0.605l0,1.783l-0.502,0l0,-2.711c0,-0.094 -0.002,-0.216 -0.007,-0.364c-0.005,-0.149 -0.012,-0.283 -0.022,-0.402l0.479,0Z" style="fill:#707070;fill-rule:nonzero;"/><path d="M18.537,5.436l-0.501,0l0,-3.477l0.501,0l0,3.477Zm0.104,-4.814c0,0.104 -0.037,0.19 -0.111,0.257c-0.074,0.067 -0.155,0.1 -0.244,0.1c-0.088,0 -0.169,-0.033 -0.243,-0.1c-0.074,-0.067 -0.111,-0.153 -0.111,-0.257c0,-0.104 0.037,-0.189 0.111,-0.256c0.074,-0.067 0.155,-0.1 0.243,-0.1c0.089,0 0.17,0.033 0.244,0.1c0.074,0.067 0.111,0.152 0.111,0.256Z" style="fill:#707070;fill-rule:nonzero;"/><path d="M19.873,2.725c0,-0.094 -0.002,-0.216 -0.007,-0.364c-0.005,-0.149 -0.012,-0.283 -0.022,-0.402l0.479,0c0.01,0.095 0.018,0.199 0.023,0.312c0.004,0.114 0.007,0.208 0.007,0.283l0.015,0c0.098,-0.203 0.246,-0.368 0.443,-0.494c0.196,-0.127 0.418,-0.19 0.664,-0.19c0.064,0 0.122,0.003 0.173,0.008c0.052,0.005 0.105,0.015 0.159,0.03l-0.067,0.475c-0.029,-0.01 -0.078,-0.02 -0.147,-0.03c-0.069,-0.01 -0.138,-0.015 -0.207,-0.015c-0.133,0 -0.261,0.025 -0.384,0.075c-0.123,0.049 -0.23,0.127 -0.321,0.234c-0.091,0.106 -0.164,0.242 -0.221,0.408c-0.057,0.166 -0.085,0.365 -0.085,0.598l0,1.783l-0.502,0l0,-2.711Z" style="fill:#707070;fill-rule:nonzero;"/><path d="M28.11,4.656l0.014,0l0,-4.479l0.532,0l0,5.259l-0.665,0l-3.04,-4.524l-0.015,0l0,4.524l-0.531,0l0,-5.259l0.664,0l3.041,4.479Z" style="fill:#707070;fill-rule:nonzero;"/><path d="M32.648,3.43c-0.014,-0.327 -0.119,-0.598 -0.313,-0.813c-0.195,-0.216 -0.471,-0.323 -0.831,-0.323c-0.167,0 -0.322,0.031 -0.464,0.093c-0.143,0.062 -0.269,0.146 -0.377,0.252c-0.108,0.107 -0.194,0.228 -0.258,0.364c-0.064,0.136 -0.101,0.279 -0.111,0.427l2.354,0Zm0.51,0.164l0,0.111c0,0.04 -0.003,0.082 -0.008,0.126l-2.863,0c0.005,0.174 0.039,0.337 0.103,0.491c0.064,0.153 0.153,0.287 0.266,0.401c0.113,0.114 0.246,0.204 0.398,0.271c0.153,0.067 0.318,0.1 0.495,0.1c0.261,0 0.486,-0.06 0.675,-0.182c0.189,-0.121 0.333,-0.261 0.432,-0.419l0.376,0.297c-0.206,0.262 -0.434,0.45 -0.682,0.564c-0.249,0.114 -0.516,0.171 -0.801,0.171c-0.256,0 -0.493,-0.046 -0.712,-0.137c-0.219,-0.092 -0.408,-0.219 -0.565,-0.383c-0.157,-0.163 -0.282,-0.356 -0.373,-0.579c-0.091,-0.223 -0.136,-0.466 -0.136,-0.728c0,-0.263 0.044,-0.505 0.133,-0.728c0.088,-0.223 0.211,-0.416 0.369,-0.58c0.157,-0.163 0.342,-0.291 0.553,-0.382c0.212,-0.092 0.44,-0.138 0.686,-0.138c0.271,0 0.51,0.046 0.716,0.138c0.207,0.091 0.379,0.215 0.517,0.371c0.138,0.156 0.242,0.338 0.314,0.546c0.071,0.208 0.107,0.431 0.107,0.669Z" style="fill:#707070;fill-rule:nonzero;"/><path d="M35.002,3.638l-1.276,-1.679l0.642,0l0.944,1.323l0.945,-1.323l0.605,0l-1.254,1.657l1.372,1.82l-0.649,0l-1.026,-1.449l-1.055,1.449l-0.606,0l1.358,-1.798Z" style="fill:#707070;fill-rule:nonzero;"/><path d="M39.32,2.383l-0.974,0l0,2.028c0,0.129 0.012,0.235 0.037,0.319c0.024,0.084 0.06,0.15 0.107,0.197c0.046,0.047 0.102,0.079 0.166,0.097c0.064,0.017 0.132,0.026 0.206,0.026c0.069,0 0.142,-0.01 0.218,-0.03c0.076,-0.02 0.149,-0.047 0.218,-0.082l0.022,0.439c-0.089,0.034 -0.181,0.06 -0.277,0.078c-0.096,0.017 -0.2,0.026 -0.314,0.026c-0.093,0 -0.191,-0.013 -0.295,-0.038c-0.103,-0.024 -0.199,-0.071 -0.288,-0.141c-0.088,-0.069 -0.161,-0.163 -0.217,-0.282c-0.057,-0.119 -0.085,-0.275 -0.085,-0.468l0,-2.169l-0.716,0l0,-0.424l0.716,0l0,-0.98l0.502,0l0,0.98l0.974,0l0,0.424Z" style="fill:#707070;fill-rule:nonzero;"/></g></svg>