<?xml version="1.0" encoding="UTF-8" standalone="no"?><!DOCTYPE svg PUBLIC "-//W3C//DTD SVG 1.1//EN" "http://www.w3.org/Graphics/SVG/1.1/DTD/svg11.dtd"><svg width="100%" height="100%" viewBox="0 0 50 6" version="1.1" xmlns="http://www.w3.org/2000/svg" xmlns:xlink="http://www.w3.org/1999/xlink" xml:space="preserve" xmlns:serif="http://www.serif.com/" style="fill-rule:evenodd;clip-rule:evenodd;stroke-linejoin:round;stroke-miterlimit:2;"><rect id="Artboard1" x="0" y="0" width="49.517" height="5.617" style="fill:none;"/><g><path d="M0.182,0.132l0,5.304l0.701,0l0,-2.429l2.775,0l0,2.429l0.701,0l0,-5.304l-0.701,0l0,2.281l-2.775,0l0,-2.281l-0.701,0Z" style="fill:#707070;fill-rule:nonzero;"/><path d="M8.056,3.148l-2.192,0c0.01,-0.149 0.042,-0.288 0.096,-0.42c0.054,-0.131 0.128,-0.246 0.222,-0.345c0.093,-0.099 0.205,-0.177 0.335,-0.234c0.131,-0.057 0.277,-0.086 0.44,-0.086c0.157,0 0.301,0.029 0.431,0.086c0.131,0.057 0.244,0.134 0.34,0.23c0.096,0.097 0.172,0.212 0.229,0.346c0.056,0.133 0.089,0.274 0.099,0.423Zm0.605,1.07l-0.619,0c-0.055,0.252 -0.167,0.44 -0.336,0.564c-0.17,0.124 -0.388,0.186 -0.653,0.186c-0.207,0 -0.387,-0.035 -0.539,-0.104c-0.153,-0.069 -0.278,-0.162 -0.377,-0.279c-0.098,-0.116 -0.169,-0.25 -0.214,-0.401c-0.044,-0.151 -0.064,-0.31 -0.059,-0.479l2.856,0c0.01,-0.233 -0.011,-0.478 -0.062,-0.735c-0.052,-0.258 -0.145,-0.495 -0.281,-0.713c-0.135,-0.218 -0.315,-0.398 -0.538,-0.539c-0.224,-0.141 -0.506,-0.212 -0.845,-0.212c-0.261,0 -0.501,0.05 -0.72,0.149c-0.219,0.099 -0.408,0.238 -0.568,0.416c-0.16,0.178 -0.284,0.389 -0.373,0.631c-0.089,0.243 -0.133,0.51 -0.133,0.803c0.01,0.292 0.053,0.562 0.129,0.809c0.077,0.248 0.191,0.461 0.343,0.639c0.153,0.178 0.341,0.317 0.565,0.416c0.224,0.099 0.488,0.149 0.793,0.149c0.433,0 0.793,-0.109 1.078,-0.327c0.285,-0.218 0.47,-0.542 0.553,-0.973Z" style="fill:#707070;fill-rule:nonzero;"/><rect x="9.407" y="0.132" width="0.627" height="5.304" style="fill:#707070;fill-rule:nonzero;"/><path d="M12.728,5.436l1.395,-3.84l-0.657,0l-1.041,3.201l-0.014,0l-1.071,-3.201l-0.701,0l1.417,3.84l0.672,0Z" style="fill:#707070;fill-rule:nonzero;"/><path d="M17.348,3.148l-2.192,0c0.01,-0.149 0.042,-0.288 0.096,-0.42c0.054,-0.131 0.128,-0.246 0.221,-0.345c0.094,-0.099 0.206,-0.177 0.336,-0.234c0.131,-0.057 0.277,-0.086 0.439,-0.086c0.158,0 0.302,0.029 0.432,0.086c0.13,0.057 0.244,0.134 0.34,0.23c0.096,0.097 0.172,0.212 0.228,0.346c0.057,0.133 0.09,0.274 0.1,0.423Zm0.605,1.07l-0.62,0c-0.054,0.252 -0.166,0.44 -0.336,0.564c-0.169,0.124 -0.387,0.186 -0.653,0.186c-0.206,0 -0.386,-0.035 -0.538,-0.104c-0.153,-0.069 -0.278,-0.162 -0.377,-0.279c-0.098,-0.116 -0.17,-0.25 -0.214,-0.401c-0.044,-0.151 -0.064,-0.31 -0.059,-0.479l2.856,0c0.01,-0.233 -0.011,-0.478 -0.063,-0.735c-0.051,-0.258 -0.145,-0.495 -0.28,-0.713c-0.135,-0.218 -0.315,-0.398 -0.539,-0.539c-0.224,-0.141 -0.505,-0.212 -0.845,-0.212c-0.261,0 -0.5,0.05 -0.719,0.149c-0.219,0.099 -0.409,0.238 -0.569,0.416c-0.16,0.178 -0.284,0.389 -0.372,0.631c-0.089,0.243 -0.133,0.51 -0.133,0.803c0.01,0.292 0.053,0.562 0.129,0.809c0.076,0.248 0.191,0.461 0.343,0.639c0.153,0.178 0.341,0.317 0.565,0.416c0.224,0.099 0.488,0.149 0.793,0.149c0.433,0 0.792,-0.109 1.078,-0.327c0.285,-0.218 0.47,-0.542 0.553,-0.973Z" style="fill:#707070;fill-rule:nonzero;"/><path d="M19.533,1.596l0,-1.152l-0.628,0l0,1.152l-0.649,0l0,0.557l0.649,0l0,2.444c0,0.178 0.017,0.321 0.052,0.43c0.034,0.109 0.087,0.194 0.159,0.253c0.071,0.059 0.164,0.1 0.28,0.123c0.116,0.022 0.255,0.033 0.417,0.033l0.48,0l0,-0.557l-0.288,0c-0.099,0 -0.178,-0.004 -0.24,-0.011c-0.061,-0.008 -0.109,-0.024 -0.144,-0.049c-0.034,-0.024 -0.058,-0.059 -0.07,-0.104c-0.012,-0.044 -0.018,-0.104 -0.018,-0.178l0,-2.384l0.76,0l0,-0.557l-0.76,0Z" style="fill:#707070;fill-rule:nonzero;"/><path d="M21.651,0.905l0,-0.773l-0.628,0l0,0.773l0.628,0Zm-0.628,0.691l0,3.84l0.628,0l0,-3.84l-0.628,0Z" style="fill:#707070;fill-rule:nonzero;"/><path d="M25.215,2.829l0.65,0c-0.025,-0.228 -0.084,-0.425 -0.177,-0.591c-0.094,-0.166 -0.213,-0.303 -0.358,-0.412c-0.145,-0.109 -0.313,-0.19 -0.502,-0.242c-0.19,-0.052 -0.393,-0.078 -0.609,-0.078c-0.3,0 -0.563,0.054 -0.79,0.16c-0.226,0.107 -0.414,0.253 -0.564,0.438c-0.15,0.186 -0.262,0.404 -0.336,0.654c-0.074,0.25 -0.111,0.519 -0.111,0.806c0,0.287 0.038,0.551 0.115,0.791c0.076,0.24 0.189,0.447 0.339,0.62c0.15,0.174 0.337,0.307 0.561,0.402c0.224,0.094 0.481,0.141 0.771,0.141c0.487,0 0.872,-0.129 1.155,-0.387c0.283,-0.257 0.459,-0.624 0.528,-1.099l-0.642,0c-0.04,0.297 -0.147,0.527 -0.321,0.691c-0.175,0.163 -0.417,0.245 -0.727,0.245c-0.197,0 -0.367,-0.04 -0.509,-0.119c-0.143,-0.079 -0.259,-0.184 -0.347,-0.316c-0.089,-0.131 -0.154,-0.281 -0.196,-0.449c-0.042,-0.168 -0.063,-0.342 -0.063,-0.52c0,-0.193 0.02,-0.38 0.059,-0.561c0.04,-0.181 0.105,-0.34 0.196,-0.479c0.091,-0.139 0.213,-0.25 0.365,-0.334c0.153,-0.084 0.342,-0.127 0.569,-0.127c0.265,0 0.477,0.067 0.634,0.201c0.158,0.134 0.261,0.322 0.31,0.565Z" style="fill:#707070;fill-rule:nonzero;"/><path d="M29.968,5.421c-0.108,0.065 -0.258,0.097 -0.45,0.097c-0.162,0 -0.292,-0.046 -0.387,-0.138c-0.096,-0.091 -0.144,-0.241 -0.144,-0.449c-0.173,0.208 -0.373,0.358 -0.602,0.449c-0.229,0.092 -0.476,0.138 -0.742,0.138c-0.172,0 -0.335,-0.02 -0.49,-0.06c-0.155,-0.039 -0.289,-0.101 -0.403,-0.185c-0.113,-0.085 -0.203,-0.195 -0.269,-0.331c-0.066,-0.136 -0.1,-0.301 -0.1,-0.494c0,-0.218 0.037,-0.396 0.111,-0.535c0.074,-0.138 0.171,-0.251 0.292,-0.338c0.12,-0.086 0.258,-0.152 0.413,-0.197c0.155,-0.044 0.314,-0.081 0.476,-0.111c0.172,-0.035 0.336,-0.061 0.491,-0.078c0.155,-0.017 0.291,-0.042 0.409,-0.074c0.118,-0.033 0.212,-0.08 0.281,-0.142c0.069,-0.061 0.103,-0.152 0.103,-0.271c0,-0.138 -0.026,-0.25 -0.077,-0.334c-0.052,-0.084 -0.118,-0.149 -0.2,-0.193c-0.081,-0.045 -0.172,-0.074 -0.273,-0.089c-0.101,-0.015 -0.2,-0.023 -0.299,-0.023c-0.265,0 -0.487,0.051 -0.664,0.153c-0.177,0.101 -0.273,0.293 -0.288,0.575l-0.627,0c0.01,-0.237 0.059,-0.438 0.148,-0.601c0.088,-0.164 0.206,-0.296 0.354,-0.398c0.147,-0.101 0.316,-0.174 0.505,-0.219c0.19,-0.044 0.393,-0.067 0.609,-0.067c0.172,0 0.343,0.013 0.513,0.038c0.17,0.024 0.324,0.075 0.461,0.152c0.138,0.077 0.249,0.184 0.333,0.323c0.083,0.139 0.125,0.319 0.125,0.542l0,1.976c0,0.149 0.009,0.258 0.026,0.327c0.017,0.069 0.075,0.104 0.173,0.104c0.054,0 0.118,-0.012 0.192,-0.037l0,0.49Zm-1.018,-1.968c-0.079,0.059 -0.182,0.102 -0.31,0.13c-0.128,0.027 -0.262,0.049 -0.402,0.066c-0.141,0.018 -0.282,0.038 -0.425,0.06c-0.143,0.022 -0.27,0.058 -0.384,0.108c-0.113,0.049 -0.205,0.12 -0.276,0.211c-0.072,0.092 -0.107,0.217 -0.107,0.375c0,0.104 0.021,0.192 0.062,0.264c0.042,0.072 0.096,0.13 0.163,0.175c0.066,0.044 0.144,0.076 0.232,0.096c0.089,0.02 0.182,0.03 0.281,0.03c0.206,0 0.383,-0.028 0.531,-0.085c0.148,-0.057 0.268,-0.129 0.362,-0.216c0.093,-0.087 0.162,-0.181 0.206,-0.282c0.045,-0.102 0.067,-0.197 0.067,-0.286l0,-0.646Z" style="fill:#707070;fill-rule:nonzero;"/><path d="M32.699,0.132l0,5.304l0.664,0l0,-4.256l0.015,0l2.753,4.256l0.767,0l0,-5.304l-0.664,0l0,4.301l-0.015,0l-2.775,-4.301l-0.745,0Z" style="fill:#707070;fill-rule:nonzero;"/><path d="M40.581,3.148l-2.192,0c0.01,-0.149 0.042,-0.288 0.096,-0.42c0.054,-0.131 0.128,-0.246 0.221,-0.345c0.094,-0.099 0.206,-0.177 0.336,-0.234c0.131,-0.057 0.277,-0.086 0.439,-0.086c0.158,0 0.302,0.029 0.432,0.086c0.13,0.057 0.244,0.134 0.34,0.23c0.096,0.097 0.172,0.212 0.228,0.346c0.057,0.133 0.09,0.274 0.1,0.423Zm0.605,1.07l-0.62,0c-0.054,0.252 -0.166,0.44 -0.336,0.564c-0.169,0.124 -0.387,0.186 -0.653,0.186c-0.206,0 -0.386,-0.035 -0.538,-0.104c-0.153,-0.069 -0.278,-0.162 -0.377,-0.279c-0.098,-0.116 -0.17,-0.25 -0.214,-0.401c-0.044,-0.151 -0.064,-0.31 -0.059,-0.479l2.856,0c0.01,-0.233 -0.011,-0.478 -0.063,-0.735c-0.051,-0.258 -0.145,-0.495 -0.28,-0.713c-0.135,-0.218 -0.315,-0.398 -0.539,-0.539c-0.224,-0.141 -0.505,-0.212 -0.845,-0.212c-0.261,0 -0.5,0.05 -0.719,0.149c-0.219,0.099 -0.409,0.238 -0.569,0.416c-0.16,0.178 -0.284,0.389 -0.372,0.631c-0.089,0.243 -0.133,0.51 -0.133,0.803c0.01,0.292 0.053,0.562 0.129,0.809c0.076,0.248 0.191,0.461 0.343,0.639c0.153,0.178 0.341,0.317 0.565,0.416c0.224,0.099 0.488,0.149 0.793,0.149c0.433,0 0.792,-0.109 1.078,-0.327c0.285,-0.218 0.47,-0.542 0.553,-0.973Z" style="fill:#707070;fill-rule:nonzero;"/><path d="M45.053,5.436l0,-3.84l-0.627,0l0,2.169c0,0.173 -0.023,0.333 -0.07,0.479c-0.047,0.146 -0.117,0.273 -0.21,0.382c-0.094,0.109 -0.211,0.193 -0.351,0.253c-0.14,0.059 -0.306,0.089 -0.498,0.089c-0.241,0 -0.431,-0.069 -0.568,-0.208c-0.138,-0.139 -0.207,-0.327 -0.207,-0.565l0,-2.599l-0.627,0l0,2.525c0,0.208 0.021,0.398 0.062,0.568c0.042,0.171 0.115,0.319 0.218,0.442c0.103,0.124 0.239,0.22 0.406,0.286c0.167,0.067 0.376,0.101 0.627,0.101c0.281,0 0.524,-0.056 0.731,-0.167c0.207,-0.112 0.376,-0.286 0.509,-0.524l0.015,0l0,0.609l0.59,0Z" style="fill:#707070;fill-rule:nonzero;"/><path d="M48.648,3.148l-2.192,0c0.009,-0.149 0.041,-0.288 0.096,-0.42c0.054,-0.131 0.128,-0.246 0.221,-0.345c0.093,-0.099 0.205,-0.177 0.336,-0.234c0.13,-0.057 0.277,-0.086 0.439,-0.086c0.157,0 0.301,0.029 0.432,0.086c0.13,0.057 0.243,0.134 0.339,0.23c0.096,0.097 0.172,0.212 0.229,0.346c0.057,0.133 0.09,0.274 0.1,0.423Zm0.605,1.07l-0.62,0c-0.054,0.252 -0.166,0.44 -0.336,0.564c-0.17,0.124 -0.387,0.186 -0.653,0.186c-0.207,0 -0.386,-0.035 -0.539,-0.104c-0.152,-0.069 -0.278,-0.162 -0.376,-0.279c-0.099,-0.116 -0.17,-0.25 -0.214,-0.401c-0.045,-0.151 -0.064,-0.31 -0.059,-0.479l2.856,0c0.01,-0.233 -0.011,-0.478 -0.063,-0.735c-0.052,-0.258 -0.145,-0.495 -0.28,-0.713c-0.136,-0.218 -0.315,-0.398 -0.539,-0.539c-0.224,-0.141 -0.506,-0.212 -0.845,-0.212c-0.261,0 -0.501,0.05 -0.72,0.149c-0.219,0.099 -0.408,0.238 -0.568,0.416c-0.16,0.178 -0.284,0.389 -0.373,0.631c-0.088,0.243 -0.133,0.51 -0.133,0.803c0.01,0.292 0.053,0.562 0.13,0.809c0.076,0.248 0.19,0.461 0.343,0.639c0.152,0.178 0.34,0.317 0.564,0.416c0.224,0.099 0.489,0.149 0.794,0.149c0.433,0 0.792,-0.109 1.077,-0.327c0.286,-0.218 0.47,-0.542 0.554,-0.973Z" style="fill:#707070;fill-rule:nonzero;"/></g></svg>